# xmcd
#
# Track frame offsets: 
#        182
#        21972
#        49290
#        75980
#        115890
#        137507
#        158197
#        177902
#        209102
#        239472
#        255165
#
# Disc length: 3536 seconds
#
# Revision: 1
# Processed by: cddbd v1.5.1PL2 Copyright (c) Steve Scherf et al.
# Submitted via: ExactAudioCopy v0.95b3
#
DISCID=8f0dce0b
DTITLE=Kelly Joe Phelps - Roll Away the Stone
DYEAR=1997
DGENRE=Blues
TTITLE0=Roll Away the Stone
TTITLE1=Sail the Jordan
TTITLE2=When the Roll is Called Up Yonder
TTITLE3=Hosanna
TTITLE4=Without the Light
TTITLE5=Footprints
TTITLE6=Go There
TTITLE7=See That My Grave Is Kept Clean
TTITLE8=Cypress Grove
TTITLE9=That's Alright
TTITLE10=Doxology
EXTD=
EXTT0=
EXTT1=
EXTT2=
EXTT3=
EXTT4=
EXTT5=
EXTT6=
EXTT7=
EXTT8=
EXTT9=
EXTT10=
PLAYORDER=
